<svg width="20" height="20" viewBox="0 0 20 20" fill="none" xmlns="http://www.w3.org/2000/svg">
<g clip-path="url(#clip0_657_233)">
<path d="M10.5 2C5.808 2 2 5.808 2 10.5C2 15.192 5.808 19 10.5 19C15.192 19 19 15.192 19 10.5C19 5.808 15.192 2 10.5 2ZM10.5 4.55C11.911 4.55 13.05 5.689 13.05 7.1C13.05 8.511 11.911 9.65 10.5 9.65C9.089 9.65 7.95 8.511 7.95 7.1C7.95 5.689 9.089 4.55 10.5 4.55ZM10.5 16.62C8.375 16.62 6.4965 15.532 5.4 13.883C5.4255 12.1915 8.8 11.265 10.5 11.265C12.1915 11.265 15.5745 12.1915 15.6 13.883C14.5035 15.532 12.625 16.62 10.5 16.62Z" fill="white"/>
</g>
<defs>
<clipPath id="clip0_657_233">
<rect width="20" height="20" fill="white"/>
</clipPath>
</defs>
</svg>
