<svg width="20" height="14" viewBox="0 0 20 14" fill="none" xmlns="http://www.w3.org/2000/svg">
<path d="M0 12.2222C0 12.8359 0.497461 13.3333 1.11111 13.3333H18.8889C19.5025 13.3333 20 12.8359 20 12.2222V12.2222C20 11.6086 19.5025 11.1111 18.8889 11.1111H1.11111C0.497461 11.1111 0 11.6086 0 12.2222V12.2222ZM0 6.66667C0 7.28032 0.497461 7.77778 1.11111 7.77778H18.8889C19.5025 7.77778 20 7.28032 20 6.66667V6.66667C20 6.05302 19.5025 5.55556 18.8889 5.55556H1.11111C0.497461 5.55556 0 6.05302 0 6.66667V6.66667ZM1.11111 0C0.497461 0 0 0.497462 0 1.11111V1.11111C0 1.72476 0.497461 2.22222 1.11111 2.22222H18.8889C19.5025 2.22222 20 1.72476 20 1.11111V1.11111C20 0.497462 19.5025 0 18.8889 0H1.11111Z" fill="white"/>
</svg>
