<svg width="20" height="20" viewBox="0 0 20 20" fill="none" xmlns="http://www.w3.org/2000/svg">
<path d="M10.5 2C5.81323 2 2 5.8129 2 10.5C2 15.1871 5.81323 19 10.5 19C15.1868 19 19 15.1871 19 10.5C19 5.8129 15.1868 2 10.5 2ZM14.5865 11.1538H11.1538V14.75C11.1538 15.1109 10.8609 15.4038 10.5 15.4038C10.1391 15.4038 9.84615 15.1109 9.84615 14.75V11.1538H6.41346C6.05254 11.1538 5.75962 10.8609 5.75962 10.5C5.75962 10.1391 6.05254 9.84615 6.41346 9.84615H9.84615V6.57692C9.84615 6.216 10.1391 5.92308 10.5 5.92308C10.8609 5.92308 11.1538 6.216 11.1538 6.57692V9.84615H14.5865C14.9475 9.84615 15.2404 10.1391 15.2404 10.5C15.2404 10.8609 14.9475 11.1538 14.5865 11.1538Z" fill="white"/>
</svg>
