<svg width="24" height="24" viewBox="0 0 24 24" fill="none" xmlns="http://www.w3.org/2000/svg">
<g clip-path="url(#clip0_523_69)">
<path d="M1.01433 13.813L2.58721 13.8228C2.8224 15.0331 3.2879 16.209 3.99349 17.2772L2.8763 18.3846C2.47451 18.7815 2.47451 19.4234 2.8665 19.8252L4.07189 21.0453C4.46878 21.4471 5.11068 21.4471 5.51247 21.0551L6.62966 19.9477C7.68804 20.6631 8.85913 21.1482 10.0694 21.3932L10.0596 22.9661C10.0547 23.5295 10.5104 23.9852 11.0739 23.9901L12.7889 23.9999C13.3524 24.0048 13.8081 23.5491 13.813 22.9857L13.8228 21.4128C15.0331 21.1776 16.209 20.7121 17.2772 20.0065L18.3846 21.1237C18.7815 21.5255 19.4234 21.5255 19.8252 21.1335L21.0453 19.9281C21.4471 19.5312 21.4471 18.8893 21.0551 18.4875L19.9477 17.3703C20.6631 16.3119 21.1482 15.1408 21.3932 13.9306L22.9661 13.9404C23.5295 13.9453 23.9852 13.4896 23.9901 12.9261L23.9999 11.2111C24.0048 10.6476 23.5491 10.1919 22.9857 10.187L21.4128 10.1772C21.1776 8.96693 20.7121 7.79094 20.0065 6.72276L21.1237 5.61537C21.5255 5.21847 21.5255 4.57658 21.1335 4.17479L19.9281 2.9547C19.5312 2.55291 18.8893 2.55291 18.4875 2.9449L17.3703 4.05229C16.3119 3.3369 15.1408 2.8518 13.9306 2.60681L13.9404 1.03393C13.9453 0.470433 13.4896 0.014739 12.9261 0.00983903L11.2111 3.91485e-05C10.6476 -0.00486079 10.1919 0.450834 10.187 1.01433L10.1723 2.58721C8.95713 2.8224 7.78114 3.2879 6.71786 3.99349L5.61047 2.8763C5.21357 2.47451 4.57168 2.47451 4.16989 2.8665L2.9547 4.07189C2.55291 4.46878 2.55291 5.11068 2.9449 5.51247L4.05229 6.62966C3.3369 7.68804 2.8518 8.85913 2.60681 10.0694L1.03393 10.0596C0.470433 10.0547 0.014739 10.5104 0.00983903 11.0739L3.91485e-05 12.7889C-0.00486079 13.3475 0.450834 13.8081 1.01433 13.813ZM8.78563 8.75133C10.579 6.97755 13.4651 6.99225 15.2388 8.78563C17.0126 10.579 16.9979 13.4651 15.2045 15.2388C13.4112 17.0126 10.5251 16.9979 8.75133 15.2045C6.97755 13.4112 6.99225 10.5251 8.78563 8.75133Z" fill="white"/>
</g>
<defs>
<clipPath id="clip0_523_69">
<rect width="24" height="24" fill="white"/>
</clipPath>
</defs>
</svg>
