<svg width="32" height="32" viewBox="0 0 32 32" fill="none" xmlns="http://www.w3.org/2000/svg">
<path d="M30 7.72247C28.9694 8.1851 27.8624 8.49643 26.7004 8.63685C27.8872 7.91841 28.7971 6.78087 29.2257 5.42454C28.1165 6.08964 26.8867 6.57296 25.5772 6.83421C24.5294 5.70538 23.0369 5 21.3849 5C18.2125 5 15.6409 7.60055 15.6409 10.8063C15.6409 11.2613 15.6926 11.7055 15.7895 12.1289C11.0157 11.8873 6.78351 9.57518 3.94916 6.06134C3.45594 6.91912 3.17272 7.91623 3.17272 8.98192C3.17272 10.9957 4.18607 12.7733 5.72709 13.814C4.78589 13.7835 3.89962 13.5223 3.12534 13.0879C3.12534 13.113 3.12534 13.1358 3.12534 13.1609C3.12534 15.9748 5.10465 18.3217 7.73332 18.854C7.25195 18.9868 6.74366 19.0576 6.21922 19.0576C5.84985 19.0576 5.4891 19.0205 5.13911 18.9541C5.87031 21.2608 7.99177 22.9404 10.5052 22.9872C8.5399 24.5449 6.06307 25.4735 3.37087 25.4735C2.90781 25.4735 2.45014 25.4463 2 25.3918C4.54252 27.0388 7.56102 28 10.8057 28C21.372 28 27.1484 19.1523 27.1484 11.4791C27.1484 11.2276 27.143 10.9772 27.1323 10.728C28.2555 9.90828 29.23 8.88613 30 7.72247Z" fill="white"/>
</svg>
